<mxfile host="app.diagrams.net" modified="2020-07-29T16:33:57.169Z" agent="5.0 (Windows NT 10.0; Win64; x64) AppleWebKit/537.36 (KHTML, like Gecko) Chrome/84.0.4147.89 Safari/537.36 Edg/84.0.522.44" etag="xpDnJgWkP6cItzmHIL9A" version="13.5.5" type="github">
  <diagram id="C5RBs43oDa-KdzZeNtuy" name="Page-1">
    <mxGraphModel dx="1038" dy="2886" grid="1" gridSize="10" guides="1" tooltips="1" connect="1" arrows="1" fold="1" page="1" pageScale="1" pageWidth="827" pageHeight="1169" math="0" shadow="0">
      <root>
        <mxCell id="WIyWlLk6GJQsqaUBKTNV-0" />
        <mxCell id="WIyWlLk6GJQsqaUBKTNV-1" parent="WIyWlLk6GJQsqaUBKTNV-0" />
        <mxCell id="OIHfa1k98YDZYsbXEpAn-5" style="edgeStyle=orthogonalEdgeStyle;rounded=0;orthogonalLoop=1;jettySize=auto;html=1;entryX=0.5;entryY=0;entryDx=0;entryDy=0;" edge="1" parent="WIyWlLk6GJQsqaUBKTNV-1" source="OIHfa1k98YDZYsbXEpAn-4" target="OIHfa1k98YDZYsbXEpAn-6">
          <mxGeometry relative="1" as="geometry">
            <mxPoint x="180" y="-2120" as="targetPoint" />
            <Array as="points" />
          </mxGeometry>
        </mxCell>
        <mxCell id="OIHfa1k98YDZYsbXEpAn-4" value="&lt;b&gt;Initialization&lt;br&gt;&lt;br&gt;000&lt;/b&gt;" style="ellipse;whiteSpace=wrap;html=1;aspect=fixed;" vertex="1" parent="WIyWlLk6GJQsqaUBKTNV-1">
          <mxGeometry x="130" y="-2270" width="90" height="90" as="geometry" />
        </mxCell>
        <mxCell id="OIHfa1k98YDZYsbXEpAn-7" style="edgeStyle=orthogonalEdgeStyle;rounded=0;orthogonalLoop=1;jettySize=auto;html=1;" edge="1" parent="WIyWlLk6GJQsqaUBKTNV-1" source="OIHfa1k98YDZYsbXEpAn-6">
          <mxGeometry relative="1" as="geometry">
            <mxPoint x="175" y="-1940" as="targetPoint" />
          </mxGeometry>
        </mxCell>
        <mxCell id="OIHfa1k98YDZYsbXEpAn-6" value="&lt;b&gt;Waiting State&lt;br&gt;&lt;br&gt;001&lt;/b&gt;" style="ellipse;whiteSpace=wrap;html=1;aspect=fixed;" vertex="1" parent="WIyWlLk6GJQsqaUBKTNV-1">
          <mxGeometry x="130" y="-2110" width="90" height="90" as="geometry" />
        </mxCell>
        <mxCell id="OIHfa1k98YDZYsbXEpAn-15" style="edgeStyle=orthogonalEdgeStyle;rounded=0;orthogonalLoop=1;jettySize=auto;html=1;entryX=0;entryY=0.5;entryDx=0;entryDy=0;" edge="1" parent="WIyWlLk6GJQsqaUBKTNV-1" source="OIHfa1k98YDZYsbXEpAn-8" target="OIHfa1k98YDZYsbXEpAn-14">
          <mxGeometry relative="1" as="geometry" />
        </mxCell>
        <mxCell id="OIHfa1k98YDZYsbXEpAn-19" style="edgeStyle=orthogonalEdgeStyle;rounded=0;orthogonalLoop=1;jettySize=auto;html=1;exitX=0.5;exitY=1;exitDx=0;exitDy=0;" edge="1" parent="WIyWlLk6GJQsqaUBKTNV-1" source="OIHfa1k98YDZYsbXEpAn-8">
          <mxGeometry relative="1" as="geometry">
            <mxPoint x="174" y="-1760" as="targetPoint" />
          </mxGeometry>
        </mxCell>
        <mxCell id="OIHfa1k98YDZYsbXEpAn-8" value="&lt;b&gt;click on turn on Button&lt;br&gt;&lt;br&gt;010&lt;/b&gt;" style="ellipse;whiteSpace=wrap;html=1;aspect=fixed;" vertex="1" parent="WIyWlLk6GJQsqaUBKTNV-1">
          <mxGeometry x="130" y="-1942.5" width="87.5" height="87.5" as="geometry" />
        </mxCell>
        <mxCell id="OIHfa1k98YDZYsbXEpAn-9" value="&lt;b&gt;&lt;font style=&quot;font-size: 13px&quot;&gt;Keypad Interrupt&lt;/font&gt;&lt;/b&gt;" style="text;html=1;strokeColor=none;fillColor=none;align=center;verticalAlign=middle;whiteSpace=wrap;rounded=0;" vertex="1" parent="WIyWlLk6GJQsqaUBKTNV-1">
          <mxGeometry x="180" y="-2000" width="50" height="40" as="geometry" />
        </mxCell>
        <mxCell id="OIHfa1k98YDZYsbXEpAn-11" value="&lt;b&gt;Distance more than 1m&lt;/b&gt;" style="text;html=1;strokeColor=none;fillColor=none;align=center;verticalAlign=middle;whiteSpace=wrap;rounded=0;" vertex="1" parent="WIyWlLk6GJQsqaUBKTNV-1">
          <mxGeometry x="20" y="-1905" width="70" height="50" as="geometry" />
        </mxCell>
        <mxCell id="OIHfa1k98YDZYsbXEpAn-13" value="" style="curved=1;endArrow=classic;html=1;entryX=0.073;entryY=0.214;entryDx=0;entryDy=0;entryPerimeter=0;" edge="1" parent="WIyWlLk6GJQsqaUBKTNV-1" target="OIHfa1k98YDZYsbXEpAn-8">
          <mxGeometry width="50" height="50" relative="1" as="geometry">
            <mxPoint x="150" y="-1860" as="sourcePoint" />
            <mxPoint x="130" y="-1920" as="targetPoint" />
            <Array as="points">
              <mxPoint x="130" y="-1855" />
              <mxPoint x="90" y="-1875" />
              <mxPoint x="100" y="-1905" />
            </Array>
          </mxGeometry>
        </mxCell>
        <mxCell id="OIHfa1k98YDZYsbXEpAn-14" value="&lt;b&gt;Lamp On&lt;br&gt;&lt;br&gt;011&lt;/b&gt;" style="ellipse;whiteSpace=wrap;html=1;aspect=fixed;" vertex="1" parent="WIyWlLk6GJQsqaUBKTNV-1">
          <mxGeometry x="320" y="-1945.75" width="94" height="94" as="geometry" />
        </mxCell>
        <mxCell id="OIHfa1k98YDZYsbXEpAn-17" value="&lt;b&gt;Distance less than 1m and lightbulb ok&lt;/b&gt;" style="text;html=1;strokeColor=none;fillColor=none;align=center;verticalAlign=middle;whiteSpace=wrap;rounded=0;" vertex="1" parent="WIyWlLk6GJQsqaUBKTNV-1">
          <mxGeometry x="240" y="-1855" width="40" height="20" as="geometry" />
        </mxCell>
        <mxCell id="OIHfa1k98YDZYsbXEpAn-22" style="edgeStyle=orthogonalEdgeStyle;rounded=0;orthogonalLoop=1;jettySize=auto;html=1;exitX=0.5;exitY=1;exitDx=0;exitDy=0;entryX=0.5;entryY=0;entryDx=0;entryDy=0;" edge="1" parent="WIyWlLk6GJQsqaUBKTNV-1" source="OIHfa1k98YDZYsbXEpAn-20" target="OIHfa1k98YDZYsbXEpAn-4">
          <mxGeometry relative="1" as="geometry">
            <Array as="points">
              <mxPoint x="172" y="-1656" />
              <mxPoint x="540" y="-1656" />
              <mxPoint x="540" y="-1970" />
              <mxPoint x="480" y="-1970" />
              <mxPoint x="480" y="-2290" />
              <mxPoint x="175" y="-2290" />
            </Array>
          </mxGeometry>
        </mxCell>
        <mxCell id="OIHfa1k98YDZYsbXEpAn-20" value="&lt;b&gt;Lamp remains off&lt;br&gt;&lt;br&gt;101&lt;/b&gt;" style="ellipse;whiteSpace=wrap;html=1;aspect=fixed;" vertex="1" parent="WIyWlLk6GJQsqaUBKTNV-1">
          <mxGeometry x="130" y="-1760" width="93.75" height="93.75" as="geometry" />
        </mxCell>
        <mxCell id="OIHfa1k98YDZYsbXEpAn-21" value="&lt;b&gt;Distance less than 1m and lightbulb not ok&lt;/b&gt;" style="text;html=1;strokeColor=none;fillColor=none;align=center;verticalAlign=middle;whiteSpace=wrap;rounded=0;" vertex="1" parent="WIyWlLk6GJQsqaUBKTNV-1">
          <mxGeometry x="80" y="-1835" width="90" height="60" as="geometry" />
        </mxCell>
      </root>
    </mxGraphModel>
  </diagram>
</mxfile>
